<svg id="Capa_1" enable-background="new 0 0 512 512" height="512" viewBox="0 0 512 512" width="512" xmlns="http://www.w3.org/2000/svg"><path d="m497 0h-482c-8.284 0-15 6.716-15 15v257.067c0 8.284 6.716 15 15 15h177.8v65.333c0 8.308 6.75 15 14.997 15 3.445 0 6.856-1.186 9.605-3.477l92.229-76.856h187.369c8.284 0 15-6.716 15-15v-257.067c0-8.284-6.716-15-15-15zm-256 222.8h-161.733c-8.284 0-15-6.716-15-15s6.716-15 15-15h161.733c8.284 0 15 6.716 15 15s-6.716 15-15 15zm191.733-64.267h-353.466c-8.284 0-15-6.716-15-15s6.716-15 15-15h353.467c8.284 0 15 6.716 15 15s-6.716 15-15.001 15zm0-64.266h-353.466c-8.284 0-15-6.716-15-15s6.716-15 15-15h353.467c8.284 0 15 6.716 15 15s-6.716 15-15.001 15z"/><path d="m119.457 377.567c0-22.148-18.018-40.167-40.166-40.167s-40.167 18.019-40.167 40.167 18.019 40.167 40.167 40.167 40.166-18.019 40.166-40.167z"/><path d="m79.267 417.733c-43.708 0-79.267 35.559-79.267 79.267 0 8.284 6.716 15 15 15h128.533c8.284 0 15-6.716 15-15 0-43.708-35.558-79.267-79.266-79.267z"/></svg>