<svg id="Capa_1" enable-background="new 0 0 512 512" height="512" viewBox="0 0 512 512" width="512" xmlns="http://www.w3.org/2000/svg"><path d="m497 353.467h-44.045l-76.771-46.063c-4.636-2.78-10.406-2.853-15.108-.191-4.702 2.663-7.609 7.649-7.609 13.053v33.2h-49.267c-8.284 0-15 6.716-15 15v128.534c0 8.284 6.716 15 15 15h192.8c8.284 0 15-6.716 15-15v-128.533c0-8.284-6.716-15-15-15zm-64.267 94.266h-64.267c-8.284 0-15-6.716-15-15s6.716-15 15-15h64.267c8.284 0 15 6.716 15 15s-6.715 15-15 15z"/><path d="m239.934 353.467h-81.4v-33.2c0-5.682-3.21-10.875-8.292-13.417-5.081-2.541-11.163-1.992-15.708 1.417l-60.267 45.2h-59.267c-8.284 0-15 6.716-15 15v128.533c0 8.284 6.716 15 15 15h224.934c8.284 0 15-6.716 15-15v-128.533c0-8.284-6.716-15-15-15zm-64.267 94.266h-96.4c-8.284 0-15-6.716-15-15s6.716-15 15-15h96.4c8.284 0 15 6.716 15 15s-6.716 15-15 15z"/><path d="m497 0h-224.934c-8.284 0-15 6.716-15 15v128.533c0 8.284 6.716 15 15 15h81.4v33.2c0 5.682 3.21 10.875 8.292 13.417 5.081 2.541 11.163 1.992 15.708-1.417l60.267-45.2h59.267c8.284 0 15-6.716 15-15v-128.533c0-8.284-6.716-15-15-15zm-64.267 94.267h-96.4c-8.284 0-15-6.716-15-15s6.716-15 15-15h96.4c8.284 0 15 6.716 15 15s-6.715 15-15 15z"/><path d="m15 158.533h44.045l76.771 46.063c4.636 2.78 10.406 2.853 15.108.191 4.702-2.663 7.609-7.649 7.609-13.053v-33.2h49.267c8.284 0 15-6.716 15-15v-128.534c0-8.284-6.716-15-15-15h-192.8c-8.284 0-15 6.716-15 15v128.533c0 8.284 6.716 15 15 15zm64.267-94.266h64.267c8.284 0 15 6.716 15 15s-6.716 15-15 15h-64.267c-8.284 0-15-6.716-15-15s6.715-15 15-15z"/><path d="m256 249.033c17.718 0 32.133-14.415 32.133-32.133s-14.415-32.133-32.133-32.133-32.133 14.415-32.133 32.133 14.415 32.133 32.133 32.133z"/><path d="m192.8 312.233c0 8.284 6.716 15 15 15h96.4c8.284 0 15-6.716 15-15 0-34.849-28.351-63.2-63.2-63.2s-63.2 28.352-63.2 63.2z"/></svg>